<mxfile host="app.diagrams.net" modified="2023-07-09T15:45:14.926Z" agent="Mozilla/5.0 (Windows NT 10.0; Win64; x64) AppleWebKit/537.36 (KHTML, like Gecko) Chrome/114.0.0.0 Safari/537.36" version="21.6.1" etag="t6ik1oZnMjxyF8jJcfiB" type="github">
  <diagram name="Page-1" id="S_KV2pb8tOyOpimwaTT8">
    <mxGraphModel>
      <root>
        <mxCell id="0" />
        <mxCell id="1" parent="0" />
      </root>
    </mxGraphModel>
  </diagram>
</mxfile>
